	<svg
					xmlns="http://www.w3.org/2000/svg"
					width="40px"
					height="40px"
					fill="white"
					viewBox="0 0 21.28 21.28"
				>
					<path
						d="M10.642 7.51595C9.38762 7.51595 8.36591 8.53626 8.36591 9.78892C8.36591 11.0416 9.38762 12.0619 10.642 12.0619C11.8964 12.0619 12.9181 11.0416 12.9181 9.78892C12.9181 8.53626 11.8964 7.51595 10.642 7.51595Z"
					/>
					<path
						d="M3.08536 13.4762C2.75154 12.5973 2.56945 11.6376 2.56945 10.6375C2.56945 6.18248 6.19096 2.56593 10.6521 2.56593C15.1132 2.56593 18.7347 6.18248 18.7347 10.6375C18.7347 11.6477 18.5526 12.6074 18.2087 13.4964C18.8966 14.1631 19.4934 14.9309 19.9891 15.7593C20.8287 14.2439 21.3042 12.4963 21.3042 10.6476C21.3042 4.75808 16.5396 0 10.6521 0C4.76461 0 0 4.75808 0 10.6375C0 12.4862 0.475449 14.2136 1.29484 15.7289C1.79052 14.9006 2.39748 14.1429 3.08536 13.4762Z"
					/>
					<path
						d="M10.6419 14.0116C7.50599 14.0116 4.83539 16.0118 3.82379 18.8C5.68512 20.3254 8.06237 21.2346 10.6622 21.2346C13.2417 21.2346 15.619 20.3254 17.4803 18.8202C16.4586 16.0118 13.788 14.0116 10.6419 14.0116Z"
					/>
				</svg>